<svg
    xmlns="http://www.w3.org/2000/svg"
    width="24"
    height="24"
    viewBox="0 0 24 24"
    fill="none"
    >
    <g clip-path="url(#clip0_659_17982)">
        <path
        fill-rule="evenodd"
        clip-rule="evenodd"
        d="M7.25009 3.37919C6.88008 3.13196 6.44507 3 6.00006 3C5.40332 3 4.83103 3.23705 4.40907 3.65901C3.98711 4.08097 3.75006 4.65326 3.75006 5.25C3.75006 5.69501 3.88202 6.13002 4.12925 6.50003C4.37649 6.87004 4.72789 7.15843 5.13902 7.32873C5.55016 7.49903 6.00256 7.54358 6.43901 7.45677C6.87547 7.36995 7.27638 7.15566 7.59105 6.84099C7.90572 6.52632 8.12001 6.12541 8.20683 5.68895C8.29364 5.2525 8.24909 4.8001 8.07879 4.38896C7.90849 3.97783 7.6201 3.62643 7.25009 3.37919ZM3.91667 2.13199C4.53336 1.71993 5.25838 1.5 6.00006 1.5C6.99462 1.5 7.94845 1.89509 8.65171 2.59835C9.35497 3.30161 9.75006 4.25544 9.75006 5.25C9.75006 5.99168 9.53013 6.7167 9.11807 7.33339C8.70602 7.95007 8.12035 8.43072 7.43512 8.71455C6.7499 8.99838 5.9959 9.07264 5.26847 8.92795C4.54104 8.78325 3.87286 8.4261 3.34841 7.90165C2.82396 7.3772 2.46681 6.70902 2.32212 5.98159C2.17742 5.25416 2.25168 4.50016 2.53551 3.81494C2.81934 3.12971 3.29999 2.54404 3.91667 2.13199ZM19.2501 9.37919C18.8801 9.13196 18.4451 9 18.0001 9C17.4033 9 16.831 9.23705 16.4091 9.65901C15.9871 10.081 15.7501 10.6533 15.7501 11.25C15.7501 11.695 15.882 12.13 16.1293 12.5C16.3765 12.87 16.7279 13.1584 17.139 13.3287C17.5502 13.499 18.0026 13.5436 18.439 13.4568C18.8755 13.37 19.2764 13.1557 19.5911 12.841C19.9057 12.5263 20.12 12.1254 20.2068 11.689C20.2936 11.2525 20.2491 10.8001 20.0788 10.389C19.9085 9.97783 19.6201 9.62643 19.2501 9.37919ZM15.9167 8.13199C16.5334 7.71993 17.2584 7.5 18.0001 7.5C18.9946 7.5 19.9485 7.89509 20.6517 8.59835C21.355 9.30161 21.7501 10.2554 21.7501 11.25C21.7501 11.9917 21.5301 12.7167 21.1181 13.3334C20.706 13.9501 20.1203 14.4307 19.4351 14.7145C18.7499 14.9984 17.9959 15.0726 17.2685 14.9279C16.541 14.7833 15.8729 14.4261 15.3484 13.9017C14.824 13.3772 14.4668 12.709 14.3221 11.9816C14.1774 11.2542 14.2517 10.5002 14.5355 9.81494C14.8193 9.12971 15.3 8.54404 15.9167 8.13199ZM21.7501 22.5H23.2501V20.25C23.2501 19.2554 22.855 18.3016 22.1517 17.5984C21.4485 16.8951 20.4946 16.5 19.5001 16.5H16.5001C15.5055 16.5 14.5517 16.8951 13.8484 17.5984C13.1451 18.3016 12.7501 19.2554 12.7501 20.25V22.5H14.2501V20.25C14.2501 19.6533 14.4871 19.081 14.9091 18.659C15.331 18.2371 15.9033 18 16.5001 18H19.5001C20.0968 18 20.6691 18.2371 21.0911 18.659C21.513 19.081 21.7501 19.6533 21.7501 20.25V22.5ZM11.2501 16.5H9.75006V14.25C9.75006 13.6533 9.51301 13.081 9.09105 12.659C8.66909 12.2371 8.0968 12 7.50006 12H4.50006C3.90332 12 3.33103 12.2371 2.90907 12.659C2.48711 13.081 2.25006 13.6533 2.25006 14.25V16.5H0.750061V14.25C0.750061 13.2554 1.14515 12.3016 1.84841 11.5983C2.55167 10.8951 3.5055 10.5 4.50006 10.5H7.50006C8.49462 10.5 9.44845 10.8951 10.1517 11.5983C10.855 12.3016 11.2501 13.2554 11.2501 14.25V16.5Z"
        fill="#E5E4DF"
        />
    </g>
    <defs>
        <clipPath id="clip0_659_17982">
        <rect width="24" height="24" fill="white" />
        </clipPath>
    </defs>
</svg>