<svg xmlns="http://www.w3.org/2000/svg" width="24" height="24" viewBox="0 0 24 24" fill="none">
  <path d="M19.5 4.49983C18.8367 4.50186 18.1928 4.72384 17.6692 5.131C17.1456 5.53816 16.7719 6.1075 16.6065 6.74983H13.4478C13.3079 5.63618 12.8583 4.58413 12.1502 3.71333C11.442 2.84254 10.5037 2.18795 9.4419 1.82402C8.38013 1.46008 7.23754 1.40141 6.14408 1.65466C5.05062 1.90792 4.05017 2.46295 3.25652 3.25662C2.46287 4.05029 1.90787 5.05075 1.65463 6.14421C1.4014 7.23768 1.4601 8.38027 1.82406 9.44202C2.18802 10.5038 2.84263 11.4421 3.71344 12.1503C4.58425 12.8584 5.6363 13.308 6.74996 13.4479V16.6064C6.04297 16.7889 5.42682 17.2231 5.01701 17.8274C4.6072 18.4317 4.43187 19.1648 4.52387 19.8892C4.61588 20.6135 4.96891 21.2795 5.51679 21.7621C6.06467 22.2448 6.76978 22.5111 7.49996 22.5111C8.23014 22.5111 8.93526 22.2448 9.48314 21.7621C10.031 21.2795 10.384 20.6135 10.4761 19.8892C10.5681 19.1648 10.3927 18.4317 9.98291 17.8274C9.5731 17.2231 8.95696 16.7889 8.24996 16.6064V13.4479C9.31597 13.3138 10.326 12.8942 11.1732 12.2335L13.9251 14.986C13.6497 15.4431 13.5028 15.9661 13.5 16.4998C13.5 17.0932 13.6759 17.6732 14.0056 18.1665C14.3352 18.6599 14.8037 19.0444 15.3519 19.2715C15.9001 19.4985 16.5033 19.5579 17.0852 19.4422C17.6672 19.3264 18.2017 19.0407 18.6213 18.6211C19.0408 18.2016 19.3266 17.667 19.4423 17.0851C19.5581 16.5032 19.4987 15.9 19.2716 15.3518C19.0445 14.8036 18.66 14.3351 18.1667 14.0054C17.6733 13.6758 17.0933 13.4998 16.5 13.4998C15.9661 13.5026 15.443 13.6495 14.9857 13.925L12.2337 11.173C12.8944 10.3258 13.3139 9.31581 13.4478 8.24983H16.6065C16.7477 8.79186 17.0381 9.28343 17.4446 9.66873C17.8511 10.054 18.3576 10.3176 18.9064 10.4295C19.4552 10.5414 20.0244 10.4972 20.5494 10.3019C21.0743 10.1066 21.534 9.76794 21.8761 9.32449C22.2183 8.88103 22.4292 8.35052 22.485 7.79319C22.5408 7.23586 22.4392 6.67406 22.1917 6.17158C21.9443 5.66911 21.5608 5.24609 21.085 4.95058C20.6092 4.65507 20.0601 4.49891 19.5 4.49983ZM8.99996 19.4998C8.99996 19.7965 8.91199 20.0865 8.74717 20.3332C8.58234 20.5799 8.34808 20.7721 8.07399 20.8856C7.7999 20.9992 7.4983 21.0289 7.20733 20.971C6.91636 20.9131 6.64908 20.7703 6.4393 20.5605C6.22952 20.3507 6.08666 20.0834 6.02878 19.7925C5.97091 19.5015 6.00061 19.1999 6.11414 18.9258C6.22767 18.6517 6.41993 18.4174 6.66661 18.2526C6.91328 18.0878 7.20329 17.9998 7.49996 17.9998C7.89765 18.0003 8.27891 18.1585 8.56012 18.4397C8.84132 18.7209 8.99951 19.1021 8.99996 19.4998ZM7.49996 11.9998C6.60995 11.9998 5.73992 11.7359 4.9999 11.2414C4.25988 10.747 3.6831 10.0442 3.34251 9.22191C3.00191 8.39964 2.9128 7.49484 3.08643 6.62192C3.26006 5.74901 3.68865 4.94719 4.31798 4.31785C4.94732 3.68851 5.74914 3.25993 6.62206 3.0863C7.49497 2.91266 8.39977 3.00178 9.22204 3.34237C10.0443 3.68297 10.7471 4.25974 11.2416 4.99976C11.736 5.73979 12 6.60981 12 7.49983C11.9987 8.6929 11.5241 9.83673 10.6805 10.6804C9.83687 11.524 8.69303 11.9985 7.49996 11.9998ZM18 16.4998C18 16.7965 17.912 17.0865 17.7472 17.3332C17.5823 17.5799 17.3481 17.7721 17.074 17.8856C16.7999 17.9992 16.4983 18.0289 16.2073 17.971C15.9164 17.9131 15.6491 17.7703 15.4393 17.5605C15.2295 17.3507 15.0867 17.0834 15.0288 16.7925C14.9709 16.5015 15.0006 16.1999 15.1141 15.9258C15.2277 15.6517 15.4199 15.4174 15.6666 15.2526C15.9133 15.0878 16.2033 14.9998 16.5 14.9998C16.8976 15.0003 17.2789 15.1585 17.5601 15.4397C17.8413 15.7209 17.9995 16.1021 18 16.4998ZM19.5 8.99983C19.2033 8.99983 18.9133 8.91186 18.6666 8.74703C18.4199 8.58221 18.2277 8.34794 18.1141 8.07385C18.0006 7.79977 17.9709 7.49817 18.0288 7.20719C18.0867 6.91622 18.2295 6.64895 18.4393 6.43917C18.6491 6.22939 18.9164 6.08653 19.2073 6.02865C19.4983 5.97077 19.7999 6.00048 20.074 6.11401C20.3481 6.22754 20.5823 6.4198 20.7472 6.66647C20.912 6.91315 21 7.20316 21 7.49983C20.9995 7.89751 20.8413 8.27878 20.5601 8.55999C20.2789 8.84119 19.8976 8.99937 19.5 8.99983Z" fill="#E5E4DF"/>
</svg>