<svg xmlns="http://www.w3.org/2000/svg" width="24" height="24" viewBox="0 0 24 24" fill="none">
    <g clip-path="url(#clip0_659_17980)">
        <path d="M12.4593 1.6604C12.3262 1.55651 12.1621 1.50009 11.9933 1.50009C11.8244 1.50009 11.6604 1.55651 11.5273 1.6604L0.750061 10.0646L1.68209 11.2434L3.00006 10.2157V19.5C3.00087 19.8976 3.15917 20.2787 3.4403 20.5598C3.72143 20.8409 4.10249 20.9992 4.50006 21H19.5001C19.8977 20.9993 20.2788 20.841 20.5599 20.5599C20.8411 20.2787 20.9993 19.8976 21.0001 19.5V10.2225L22.318 11.25L23.2501 10.0712L12.4593 1.6604ZM13.5001 19.5H10.5001V13.5H13.5001V19.5ZM15.0001 19.5V13.5C14.9996 13.1024 14.8414 12.7211 14.5602 12.4399C14.279 12.1587 13.8977 12.0005 13.5001 12H10.5001C10.1024 12.0004 9.72106 12.1586 9.43984 12.4398C9.15862 12.721 9.00046 13.1023 9.00006 13.5V19.5H4.50006V9.04617L12.0001 3.20367L19.5001 9.05405V19.5H15.0001Z" fill="#E5E4DF" />
    </g>
    <defs>
        <clipPath id="clip0_659_17980">
        <rect width="24" height="24" fill="white" />
        </clipPath>
    </defs>
</svg>