<?xml version="1.0" encoding="UTF-8" standalone="no"?>
<!-- Created with Inkscape (http://www.inkscape.org/) -->

<svg
   version="1.1"
   id="svg2"
   width="4000"
   height="4000"
   viewBox="0 0 4000 4000"
   sodipodi:docname="vecteezy_business-expert-team-icon-business-executive-team_5965054.eps"
   xmlns:inkscape="http://www.inkscape.org/namespaces/inkscape"
   xmlns:sodipodi="http://sodipodi.sourceforge.net/DTD/sodipodi-0.dtd"
   xmlns="http://www.w3.org/2000/svg"
   xmlns:svg="http://www.w3.org/2000/svg">
  <defs
     id="defs6" />
  <sodipodi:namedview
     id="namedview4"
     pagecolor="#ffffff"
     bordercolor="#000000"
     borderopacity="0.25"
     inkscape:showpageshadow="2"
     inkscape:pageopacity="0.0"
     inkscape:pagecheckerboard="0"
     inkscape:deskcolor="#d1d1d1" />
  <g
     id="g8"
     inkscape:groupmode="layer"
     inkscape:label="ink_ext_XXXXXX"
     transform="matrix(1.3333333,0,0,-1.3333333,0,4000)">
    <g
       id="g10"
       transform="scale(0.1)">
      <path
         d="M 5,5 V 29995 H 29995 V 5 H 5"
         style="fill:#edede9;fill-opacity:1;fill-rule:nonzero;stroke:none"
         id="path12" />
      <path
         d="M 30000,30000 H 0 V 0 h 30000 v 30000 z m -10,-10 V 10 H 10 v 29980 h 29980"
         style="fill:#100f0d;fill-opacity:1;fill-rule:nonzero;stroke:none"
         id="path14" />
      <path
         d="m 18479.1,17594.8 -2.8,-3.9 -4.9,-6.9 7.7,-10.8 v 21.6"
         style="fill:#37404e;fill-opacity:1;fill-rule:nonzero;stroke:none"
         id="path16" />
      <path
         d="m 17388,14837.3 -4,-7 v 2559.4 l 4,-5.7 826.7,-1156.3 z m -4772.4,-6.4 -4.1,6.9 -826.7,1390.4 826.7,1156.3 4.1,5.8 z m 7248,1873.7 -25.5,35.8 -2043,2859.5 c -257.9,360.2 -673.6,574.1 -1117,574.1 h -496 l -740.1,-2324.7 -130,1766.2 326.1,564.3 c 27.6,48 -7,108.7 -63.1,108.7 h -1150.4 c -55.5,0 -90.8,-60.7 -63.1,-108.7 l 327.7,-568.3 -130,-1767.3 -741.7,2330.3 h -496.1 c -443.5,0 -859.1,-213.8 -1116.3,-574.6 l -2043.7,-2858.9 -25.5,-35.9 c -194.8,-272.7 -179.74,-633 12.7,-887.3 l 2462.9,-3248 4.1,-5.2 v -1594.5 c 0,-80.4 43.3,-149.7 108,-187.9 l 31.5,-566.2 372.7,-6716 h 1571.3 l 233,6716 18.4,535 h 49.3 v -0.6 h 49.2 l 18.5,-534.4 232.9,-6716 h 1571.4 l 372.7,6716 31.4,565.6 c 64.7,38.2 108.1,107.6 108.1,188 V 12564 l 4,5.2 2462.9,3248 c 192.5,254.4 207.5,614.5 12.7,887.4"
         style="fill:#3e72c1;fill-opacity:1;fill-rule:nonzero;stroke:none"
         id="path18" />
      <path
         d="m 14973.5,20958.4 c 816.5,0 1478.5,1411.2 1478.5,2227.7 0,816.6 -662,1478.5 -1478.5,1478.5 -816.6,0 -1478.5,-661.9 -1478.5,-1478.5 0,-816.5 661.9,-2227.7 1478.5,-2227.7"
         style="fill:#3e72c1;fill-opacity:1;fill-rule:nonzero;stroke:none"
         id="path20" />
      <path
         d="m 6470.24,15286 -4.4,4.4 -584.09,988.1 584.09,821.4 4.4,4.4 z m 3131.39,1800.7 843.17,1177 -294.2,412.8 c -184.47,254.7 -478.74,408.4 -794.94,408.4 h -351.37 l -527,-1651.2 -92.21,1251.6 232.78,404 c 21.98,35.2 -4.39,74.7 -43.96,74.7 h -816.82 c -39.57,0 -65.95,-39.5 -43.96,-74.7 l 232.77,-404 -92.21,-1256 -527.05,1655.6 h -355.71 c -311.8,0 -610.48,-153.7 -790.55,-408.4 l -1453.73,-2033.4 -17.53,-26.4 c -140.52,-193.2 -127.38,-448 8.74,-628 l 1747.99,-2310.1 4.4,-4.4 v -1133.1 c 0,-57.1 30.72,-105.4 79.08,-131.7 l 21.93,-404.1 263.5,-4769.5 h 1115.54 l 166.89,4769.5 13.14,382.1 h 70.34 l 13.13,-382.1 166.89,-4769.5 h 1115.55 l 263.5,4769.5 21.93,404.1 c 48.35,26.3 79.07,74.6 79.07,131.7 v 1137.5 l 540.17,711.5 -777.29,1027.7 c -373.35,496.2 -382.14,1168.2 -21.98,1668.9"
         style="fill:#37404e;fill-opacity:1;fill-rule:nonzero;stroke:none"
         id="path22" />
      <path
         d="m 8146.28,19641.7 c 580.28,0 1050.76,1002.9 1050.76,1583.2 0,580.3 -470.48,1050.7 -1050.76,1050.7 -580.36,0 -1050.76,-470.4 -1050.76,-1050.7 0,-580.3 470.4,-1583.2 1050.76,-1583.2"
         style="fill:#37404e;fill-opacity:1;fill-rule:nonzero;stroke:none"
         id="path24" />
      <path
         d="m 23532.5,15290.4 -4.3,-4.4 v 1818.3 l 4.3,-4.4 588.6,-821.4 z m 1756.8,1326.3 -17.6,26.4 -1449.3,2033.4 c -184.5,254.7 -478.7,408.4 -794.9,408.4 h -351.3 l -527.1,-1651.2 -92.2,1251.6 232.7,404 c 17.6,35.2 -4.4,74.7 -48.2,74.7 h -817 c -39.5,0 -61.4,-39.5 -43.9,-74.7 l 232.8,-404 -92.2,-1256 -527,1655.6 h -351.4 c -316.2,0 -610.4,-153.7 -794.9,-408.4 l -289.9,-408.4 843.3,-1181.4 c 360.1,-500.7 346.9,-1172.7 -26.4,-1668.9 l -777.3,-1027.7 540.2,-711.5 4.4,-4.4 v -1133.1 c 0,-57.1 30.7,-105.4 74.6,-131.7 l 22,-404.1 263.5,-4769.5 h 1119.9 l 162.5,4769.5 13.2,382.1 h 70.2 l 13.2,-382.1 166.9,-4769.5 h 1115.5 l 267.9,4769.5 22,404.1 c 43.9,26.3 74.7,74.6 74.7,131.7 v 1133.1 l 4.3,4.4 1748,2310.1 c 140.6,180 149.4,434.8 8.8,628"
         style="fill:#37404e;fill-opacity:1;fill-rule:nonzero;stroke:none"
         id="path26" />
      <path
         d="m 21815.9,19641.7 c 580.3,0 1050.8,1002.9 1050.8,1583.2 0,580.3 -470.5,1050.7 -1050.8,1050.7 -580.4,0 -1050.8,-470.4 -1050.8,-1050.7 0,-580.3 470.4,-1583.2 1050.8,-1583.2"
         style="fill:#37404e;fill-opacity:1;fill-rule:nonzero;stroke:none"
         id="path28" />
      <path
         d="m 19295.1,21848.6 -472.2,-232.9 -271.8,-450.8 -232.9,472.2 -450.8,271.8 472.1,232.9 271.9,450.8 232.9,-472.1 450.8,-271.9"
         style="fill:#3e72c1;fill-opacity:1;fill-rule:nonzero;stroke:none"
         id="path30" />
      <path
         d="m 11986.8,21740.1 -472.2,-232.9 -271.8,-450.8 -232.9,472.1 -450.8,271.9 472.1,232.9 271.9,450.8 232.9,-472.2 450.8,-271.8"
         style="fill:#3e72c1;fill-opacity:1;fill-rule:nonzero;stroke:none"
         id="path32" />
      <path
         d="m 14555.5,25756 -472.1,-232.9 -271.9,-450.8 -232.8,472.2 -450.8,271.8 472.1,232.9 271.9,450.8 232.8,-472.1 450.8,-271.9"
         style="fill:#3e72c1;fill-opacity:1;fill-rule:nonzero;stroke:none"
         id="path34" />
    </g>
  </g>
</svg>
