<svg xmlns="http://www.w3.org/2000/svg" width="24" height="24" viewBox="0 0 24 24" fill="none">
  <path fill-rule="evenodd" clip-rule="evenodd" d="M22.5 6H20.9242C20.8275 5.53055 20.6411 5.08416 20.3752 4.68532L21.4928 3.56783L20.4323 2.50733L19.3148 3.62483C18.9159 3.35895 18.4695 3.17255 18 3.07582V1.5H16.5V3.07582C16.0305 3.17253 15.5842 3.35892 15.1853 3.62475L14.0678 2.50725L13.0073 3.56775L14.1248 4.68525C13.859 5.0841 13.6725 5.53051 13.5758 6H12V7.5H13.5758C13.6725 7.96945 13.8589 8.41584 14.1248 8.81468L13.0072 9.93217L14.0677 10.9927L15.1852 9.87517C15.5841 10.141 16.0305 10.3275 16.5 10.4242V12H18V10.4242C18.4695 10.3275 18.9158 10.1411 19.3147 9.87525L20.4322 10.9928L21.4927 9.93225L20.3752 8.81475C20.641 8.4159 20.8275 7.96949 20.9242 7.5H22.5V6ZM17.25 9C16.805 9 16.37 8.86804 16 8.62081C15.63 8.37357 15.3416 8.02217 15.1713 7.61104C15.001 7.1999 14.9564 6.7475 15.0432 6.31105C15.13 5.87459 15.3443 5.47368 15.659 5.15901C15.9737 4.84434 16.3746 4.63005 16.811 4.54323C17.2475 4.45642 17.6999 4.50097 18.111 4.67127C18.5222 4.84157 18.8736 5.12996 19.1208 5.49997C19.368 5.86998 19.5 6.30499 19.5 6.75C19.4993 7.34654 19.2621 7.91845 18.8403 8.34027C18.4185 8.76208 17.8465 8.99934 17.25 9ZM12 22.5H10.5V18.75C10.4993 18.1535 10.2621 17.5815 9.84027 17.1597C9.41845 16.7379 8.84654 16.5007 8.25 16.5H5.25C4.65346 16.5007 4.08155 16.7379 3.65973 17.1597C3.23792 17.5815 3.00066 18.1535 3 18.75V22.5H1.5V18.75C1.50117 17.7558 1.89664 16.8027 2.59964 16.0996C3.30265 15.3966 4.2558 15.0012 5.25 15H8.25C9.2442 15.0012 10.1973 15.3966 10.9004 16.0996C11.6034 16.8027 11.9988 17.7558 12 18.75V22.5ZM8.00004 7.87919C7.63002 7.63196 7.19501 7.5 6.75 7.5C6.15326 7.5 5.58097 7.73705 5.15901 8.15901C4.73705 8.58097 4.5 9.15326 4.5 9.75C4.5 10.195 4.63196 10.63 4.8792 11C5.12643 11.37 5.47783 11.6584 5.88896 11.8287C6.3001 11.999 6.7525 12.0436 7.18896 11.9568C7.62541 11.87 8.02632 11.6557 8.34099 11.341C8.65566 11.0263 8.86995 10.6254 8.95677 10.189C9.04359 9.7525 8.99903 9.3001 8.82873 8.88896C8.65843 8.47783 8.37005 8.12643 8.00004 7.87919ZM4.66661 6.63199C5.2833 6.21993 6.00832 6 6.75 6C7.24246 6 7.73009 6.097 8.18506 6.28545C8.64004 6.47391 9.05343 6.75013 9.40165 7.09835C9.74987 7.44657 10.0261 7.85997 10.2146 8.31494C10.403 8.76991 10.5 9.25754 10.5 9.75C10.5 10.4917 10.2801 11.2167 9.86801 11.8334C9.45596 12.4501 8.87029 12.9307 8.18506 13.2145C7.49984 13.4984 6.74584 13.5726 6.01841 13.4279C5.29098 13.2833 4.6228 12.9261 4.09835 12.4017C3.5739 11.8772 3.21675 11.209 3.07206 10.4816C2.92736 9.75416 3.00162 9.00016 3.28545 8.31494C3.56928 7.62971 4.04993 7.04404 4.66661 6.63199Z" fill="#E5E4DF"/>
</svg>