<svg width="16" height="16" viewBox="0 0 16 16" fill="none" xmlns="http://www.w3.org/2000/svg">
<path fill-rule="evenodd" clip-rule="evenodd" d="M4.00002 3.16331C3.77232 3.01026 3.50462 2.92857 3.23077 2.92857C2.86355 2.92857 2.51137 3.07532 2.2517 3.33653C1.99203 3.59774 1.84615 3.95202 1.84615 4.32143C1.84615 4.59691 1.92736 4.8662 2.0795 5.09526C2.23165 5.32431 2.4479 5.50284 2.7009 5.60826C2.95391 5.71368 3.23231 5.74127 3.5009 5.68752C3.76948 5.63378 4.0162 5.50112 4.20984 5.30633C4.40348 5.11153 4.53536 4.86335 4.58878 4.59316C4.64221 4.32297 4.61479 4.04292 4.50999 3.78841C4.40519 3.53389 4.22772 3.31636 4.00002 3.16331ZM1.94869 2.39123C2.32818 2.13615 2.77435 2 3.23077 2C3.84281 2 4.42978 2.24458 4.86256 2.67993C5.29533 3.11528 5.53846 3.70575 5.53846 4.32143C5.53846 4.78056 5.40312 5.22939 5.14955 5.61115C4.89597 5.9929 4.53556 6.29045 4.11389 6.46615C3.69221 6.64185 3.22821 6.68782 2.78056 6.59825C2.33291 6.50868 1.92172 6.28758 1.59899 5.96293C1.27625 5.63827 1.05646 5.22463 0.96742 4.77432C0.878377 4.324 0.924077 3.85724 1.09874 3.43306C1.2734 3.00887 1.56919 2.64631 1.94869 2.39123ZM10.5389 6.87815C10.3112 6.7251 10.0435 6.64342 9.76961 6.64342C9.40238 6.64342 9.0502 6.79016 8.79054 7.05137C8.53087 7.31258 8.38499 7.66686 8.38499 8.03627C8.38499 8.31175 8.4662 8.58105 8.61834 8.8101C8.77048 9.03916 8.98673 9.21768 9.23974 9.3231C9.49274 9.42853 9.77114 9.45611 10.0397 9.40237C10.3083 9.34862 10.555 9.21597 10.7487 9.02117C10.9423 8.82638 11.0742 8.57819 11.1276 8.30801C11.181 8.03782 11.1536 7.75776 11.0488 7.50325C10.944 7.24874 10.7666 7.0312 10.5389 6.87815ZM8.48752 6.10608C8.86702 5.85099 9.31319 5.71484 9.76961 5.71484C10.3816 5.71484 10.9686 5.95942 11.4014 6.39477C11.8342 6.83013 12.0773 7.42059 12.0773 8.03627C12.0773 8.49541 11.942 8.94423 11.6884 9.32599C11.4348 9.70775 11.0744 10.0053 10.6527 10.181C10.231 10.3567 9.76705 10.4027 9.3194 10.3131C8.87175 10.2235 8.46056 10.0024 8.13782 9.67777C7.81509 9.35311 7.5953 8.93947 7.50626 8.48916C7.41721 8.03885 7.46291 7.57209 7.63758 7.1479C7.81224 6.72371 8.10802 6.36116 8.48752 6.10608ZM12.0765 14.9994H12.9996V13.6066C12.9996 12.9909 12.7565 12.4004 12.3237 11.9651C11.8909 11.5297 11.304 11.2852 10.6919 11.2852H8.84578C8.23374 11.2852 7.64677 11.5297 7.21399 11.9651C6.78122 12.4004 6.53809 12.9909 6.53809 13.6066V14.9994H7.46116V13.6066C7.46116 13.2372 7.60704 12.8829 7.86671 12.6217C8.12637 12.3605 8.47856 12.2137 8.84578 12.2137H10.6919C11.0592 12.2137 11.4113 12.3605 11.671 12.6217C11.9307 12.8829 12.0765 13.2372 12.0765 13.6066V14.9994ZM6.46154 11.2857H5.53846V9.89286C5.53846 9.52345 5.39258 9.16917 5.13292 8.90796C4.87325 8.64675 4.52107 8.5 4.15385 8.5H2.30769C1.94047 8.5 1.58829 8.64675 1.32862 8.90796C1.06896 9.16917 0.923077 9.52345 0.923077 9.89286V11.2857H0V9.89286C0 9.27718 0.243131 8.68671 0.675907 8.25136C1.10868 7.81601 1.69565 7.57143 2.30769 7.57143H4.15385C4.76588 7.57143 5.35285 7.81601 5.78563 8.25136C6.21841 8.68671 6.46154 9.27718 6.46154 9.89286V11.2857Z" fill="#FEFEFF"/>
<path d="M16 3H14V1H13V3H11V4H13V6H14V4H16V3Z" fill="#FEFEFF"/>
</svg>
